<svg width="512" height="512" xmlns="http://www.w3.org/2000/svg" viewBox="0 0 512 512">
  <defs>
    <linearGradient id="bg" x1="0%" y1="0%" x2="100%" y2="100%">
      <stop offset="0%" style="stop-color:#3b82f6"/>
      <stop offset="100%" style="stop-color:#6366f1"/>
    </linearGradient>
  </defs>
  <rect width="512" height="512" rx="96" fill="url(#bg)"/>
  <g transform="translate(256,256) scale(0.55)" fill="none" stroke="white" stroke-width="14" stroke-linecap="round" stroke-linejoin="round">
    <!-- Left hemisphere -->
    <path d="M-10,-160 C-80,-160 -140,-130 -170,-80 C-200,-30 -200,30 -180,70 C-195,90 -200,120 -185,150 C-170,180 -140,195 -110,195 C-90,200 -60,200 -30,190 C-20,195 -10,200 -10,200"/>
    <!-- Right hemisphere -->
    <path d="M10,-160 C80,-160 140,-130 170,-80 C200,-30 200,30 180,70 C195,90 200,120 185,150 C170,180 140,195 110,195 C90,200 60,200 30,190 C20,195 10,200 10,200"/>
    <!-- Center line -->
    <path d="M0,-170 L0,205"/>
    <!-- Left folds -->
    <path d="M0,-80 C-40,-75 -80,-60 -110,-30"/>
    <path d="M0,10 C-50,15 -100,40 -130,70"/>
    <path d="M0,100 C-40,110 -80,130 -100,155"/>
    <!-- Right folds -->
    <path d="M0,-80 C40,-75 80,-60 110,-30"/>
    <path d="M0,10 C50,15 100,40 130,70"/>
    <path d="M0,100 C40,110 80,130 100,155"/>
    <!-- Brain stem -->
    <path d="M-15,200 C-15,230 -10,250 0,260 C10,250 15,230 15,200"/>
  </g>
</svg>
